<svg width="459" height="461" fill="none" xmlns="http://www.w3.org/2000/svg"><path opacity=".2" d="M297.5 162.001c0 .823-.251 1.549-.632 2.057-.382.509-.87.777-1.368.777-.498 0-.986-.268-1.368-.777-.381-.508-.632-1.234-.632-2.057 0-.822.251-1.548.632-2.057.382-.508.87-.776 1.368-.776.498 0 .986.268 1.368.776.381.509.632 1.235.632 2.057z" stroke="#6D99CE"/><path opacity=".1" d="M349.5 115.331c0 .823-.251 1.549-.632 2.057-.382.509-.87.777-1.368.777-.498 0-.986-.268-1.368-.777-.381-.508-.632-1.234-.632-2.057 0-.822.251-1.548.632-2.057.382-.508.87-.776 1.368-.776.498 0 .986.268 1.368.776.381.509.632 1.235.632 2.057zm-48 0c0 .823-.251 1.549-.632 2.057-.382.509-.87.777-1.368.777-.498 0-.986-.268-1.368-.777-.381-.508-.632-1.234-.632-2.057 0-.822.251-1.548.632-2.057.382-.508.87-.776 1.368-.776.498 0 .986.268 1.368.776.381.509.632 1.235.632 2.057z" stroke="#6D99CE"/><path opacity=".05" d="M273.5 48.666c0 .823-.251 1.549-.632 2.057-.382.509-.87.777-1.368.777-.498 0-.986-.268-1.368-.777-.381-.508-.632-1.234-.632-2.057 0-.822.251-1.548.632-2.057.382-.508.87-.776 1.368-.776.498 0 .986.268 1.368.776.381.509.632 1.235.632 2.057z" stroke="#6D99CE"/><path d="M229.313 458.668c-125.738 0-227.668-101.93-227.668-227.667 0-125.738 101.93-227.668 227.668-227.668 125.737 0 227.667 101.93 227.667 227.668" stroke="url(#paint0_linear_1597_10)" stroke-width="3"/><path d="M229.309 443.951c-117.609 0-212.95-95.341-212.95-212.949 0-117.609 95.341-212.95 212.95-212.95 117.608 0 212.949 95.341 212.949 212.95" stroke="url(#paint1_linear_1597_10)" stroke-width="15"/><circle cx="406" cy="143" r="52" fill="url(#paint2_radial_1597_10)" fill-opacity=".88" opacity=".7"/><mask id="a" style="mask-type:alpha" maskUnits="userSpaceOnUse" x="0" y="0" width="455" height="455"><circle cx="227.5" cy="227.5" r="227.5" fill="#D9D9D9"/></mask><g mask="url(#a)" fill-opacity=".88"><ellipse opacity=".6" cx="150.565" cy="277.427" rx="203.771" ry="201.952" transform="rotate(41.994 150.565 277.427)" fill="url(#paint3_radial_1597_10)"/><ellipse opacity=".6" cx="246.544" cy="158.212" rx="246.794" ry="244.592" transform="rotate(41.994 246.544 158.212)" fill="url(#paint4_radial_1597_10)"/><ellipse cx="268.565" cy="180.427" rx="203.771" ry="201.952" transform="rotate(41.994 268.565 180.427)" fill="url(#paint5_radial_1597_10)"/><ellipse cx="159.565" cy="231.427" rx="203.771" ry="201.952" transform="rotate(41.994 159.565 231.427)" fill="url(#paint6_radial_1597_10)"/></g><path d="M67 371.5h44.5a5 5 0 005-5V352a5 5 0 015-5H172a5 5 0 005-5v-13.5a5 5 0 015-5h48.5a5 5 0 005-5v-14a5 5 0 015-5H295" stroke="url(#paint7_linear_1597_10)" stroke-width="2" stroke-linecap="round" stroke-dasharray="8 8"/><path d="M69.633 338C62.667 338 57 343.667 57 350.633a12.624 12.624 0 002.567 7.634L69.084 371h1.098l9.517-12.733a12.625 12.625 0 002.567-7.634c0-6.966-5.667-12.633-12.633-12.633zm0 16.822a4.194 4.194 0 01-4.19-4.189c0-2.31 1.88-4.19 4.19-4.19 2.31 0 4.19 1.88 4.19 4.19 0 2.31-1.88 4.189-4.19 4.189z" fill="#F9B384"/><circle cx="69.5" cy="371.5" r="4.5" fill="#F9B384" stroke="#0F4257" stroke-width="2"/><circle cx="293.5" cy="299.5" r="4.5" fill="#F9B384" stroke="#0D3B58" stroke-width="2"/><path d="M293 213.1s-3.5 2.1-7 2.1c-5.592 0-8.408-4.2-14-4.2-3.5 0-7 2.1-7 2.1v16.8s3.5-2.1 7-2.1c5.592 0 8.408 4.2 14 4.2 3.5 0 7-2.1 7-2.1" fill="#FF5800"/><path d="M293.312 210v86" stroke="#5EB2A3" stroke-width="2" stroke-miterlimit="10" stroke-linecap="round"/><path fill-rule="evenodd" clip-rule="evenodd" d="M126.807 415H68.193C67.537 415 67 397.964 67 396.912c0-1.055.537-1.912 1.193-1.912h58.614c.656 0 1.193.857 1.193 1.912 0 1.052-.537 18.088-1.193 18.088z" fill="url(#paint8_linear_1597_10)"/><path fill-rule="evenodd" clip-rule="evenodd" d="M244.807 366h-58.614c-.656 0-1.193-17.036-1.193-18.088 0-1.055.537-1.912 1.193-1.912h58.614c.656 0 1.193.857 1.193 1.912 0 1.052-.537 18.088-1.193 18.088z" fill="url(#paint9_linear_1597_10)"/><path fill-rule="evenodd" clip-rule="evenodd" d="M244.972 349.958h-58.24c-.652 0-1.185-.899-1.185-2.001 0-1.099.533-1.999 1.185-1.999h58.24c.651 0 1.185.9 1.185 1.999 0 1.102-.534 2.001-1.185 2.001z" fill="#ACBFEE"/><path fill-rule="evenodd" clip-rule="evenodd" d="M304.807 342h-58.614c-.656 0-1.193-17.036-1.193-18.088 0-1.055.537-1.912 1.193-1.912h58.614c.656 0 1.193.857 1.193 1.912 0 1.052-.537 18.088-1.193 18.088z" fill="url(#paint10_linear_1597_10)"/><path fill-rule="evenodd" clip-rule="evenodd" d="M304.143 326.408h-58.239c-.654 0-1.185-.901-1.185-2s.531-2 1.185-2h58.239c.652 0 1.185.901 1.185 2s-.533 2-1.185 2z" fill="#ACBFEE"/><path fill-rule="evenodd" clip-rule="evenodd" d="M381.435 318h-76.87c-.861 0-1.565-17.036-1.565-18.088 0-1.055.704-1.912 1.565-1.912h76.87c.861 0 1.565.857 1.565 1.912 0 1.052-.704 18.088-1.565 18.088z" fill="url(#paint11_linear_1597_10)"/><path fill-rule="evenodd" clip-rule="evenodd" d="M381.354 301.604h-76.802c-.651 0-1.185-.9-1.185-1.998 0-1.102.534-2.002 1.185-2.002h76.802c.651 0 1.185.9 1.185 2.002 0 1.098-.534 1.998-1.185 1.998z" fill="#ACBFEE"/><path fill-rule="evenodd" clip-rule="evenodd" d="M185.807 390h-58.614c-.656 0-1.193-17.036-1.193-18.088 0-1.055.537-1.912 1.193-1.912h58.614c.656 0 1.193.857 1.193 1.912 0 1.052-.537 18.088-1.193 18.088z" fill="url(#paint12_linear_1597_10)"/><path fill-rule="evenodd" clip-rule="evenodd" d="M185.87 374.304h-58.239c-.652 0-1.186-.9-1.186-2.002 0-1.098.534-1.998 1.186-1.998h58.239c.652 0 1.185.9 1.185 1.998 0 1.102-.533 2.002-1.185 2.002zm-59.328 24.487h-58.24c-.651 0-1.185-.901-1.185-2 0-1.103.534-2 1.185-2h58.24c.652 0 1.185.897 1.185 2 0 1.099-.533 2-1.185 2z" fill="#ACBFEE"/><path fill-rule="evenodd" clip-rule="evenodd" d="M395.244 151.624c-1.636 0-3.625.624-5.955 1.976-1.07.62-1.959 1.493-1.959 2.727v5.999a1.85 1.85 0 01-1.851 1.848h-7.698l-8.867 12.253 1.575 34.689c29.782-25.794 36.785-59.492 24.755-59.492zm.002 2.553c.858 0 1.825.232 2.47 1.958.71 1.894.743 4.885.093 8.421-.731 3.981-2.3 8.573-4.539 13.28-4.617 9.705-11.792 19.395-20.472 27.72l-1.288-28.355 7.578-10.474h6.391a4.41 4.41 0 004.409-4.401v-5.972c.039-.058.196-.263.686-.547 2.322-1.347 3.822-1.63 4.672-1.63z" fill="url(#paint13_linear_1597_10)"/><path fill-rule="evenodd" clip-rule="evenodd" d="M303.59 151.624c-12.03 0-5.027 33.698 24.755 59.492l1.574-34.689-8.867-12.253h-7.698a1.85 1.85 0 01-1.851-1.848v-5.999c0-1.234-.889-2.107-1.958-2.727-2.331-1.352-4.319-1.976-5.955-1.976zm0 2.553c.847 0 2.348.283 4.67 1.63.49.284.649.489.686.547v5.972a4.41 4.41 0 004.408 4.401h6.391l7.578 10.474-1.287 28.355c-8.68-8.325-15.855-18.015-20.473-27.72-2.239-4.707-3.807-9.299-4.539-13.28-.649-3.536-.617-6.527.094-8.421.644-1.726 1.611-1.958 2.472-1.958z" fill="url(#paint14_linear_1597_10)"/><path fill-rule="evenodd" clip-rule="evenodd" d="M324.352 298.637h50.132v-25.966h-50.132v25.966z" fill="#2979D5"/><path fill-rule="evenodd" clip-rule="evenodd" d="M366.811 272.672h-34.788V264.2c0-3.785 3.074-6.852 6.866-6.852h21.056c3.792 0 6.866 3.067 6.866 6.852v8.472z" fill="url(#paint15_linear_1597_10)"/><path fill-rule="evenodd" clip-rule="evenodd" d="M360.245 257.348H338.59v-5.274a4.268 4.268 0 014.271-4.265h13.111a4.27 4.27 0 014.273 4.265v5.274z" fill="url(#paint16_linear_1597_10)"/><path fill-rule="evenodd" clip-rule="evenodd" d="M355.46 245.141l.675 2.669h-13.428l.669-2.669a21.489 21.489 0 000-10.658l-.669-2.668h13.428l-.675 2.668a21.795 21.795 0 00-.588 3.511 21.466 21.466 0 00.588 7.147z" fill="url(#paint17_linear_1597_10)"/><path fill-rule="evenodd" clip-rule="evenodd" d="M354.872 237.994c-.734-4.882-12.165-6.179-12.165-6.179h13.428l-.675 2.668a21.795 21.795 0 00-.588 3.511z" fill="url(#paint18_linear_1597_10)"/><path fill-rule="evenodd" clip-rule="evenodd" d="M360.245 222.277v5.272c0 .434-.063.853-.183 1.25a4.279 4.279 0 01-4.09 3.016h-13.106a4.271 4.271 0 01-4.276-4.266v-5.272h21.655z" fill="url(#paint19_linear_1597_10)"/><path fill-rule="evenodd" clip-rule="evenodd" d="M360.062 228.798c-5.785-5.304-20.47-5.462-21.472-5.467h21.655v4.217a4.3 4.3 0 01-.183 1.25z" fill="url(#paint20_linear_1597_10)"/><path fill-rule="evenodd" clip-rule="evenodd" d="M383.05 158.57l-13.095 57.082a9.899 9.899 0 01-9.655 7.679h-21.765a9.905 9.905 0 01-9.644-7.636l-.009-.043-13.097-57.082a2.114 2.114 0 011.651-2.554c21.322-4.207 42.646-4.207 63.966 0a2.113 2.113 0 011.648 2.554z" fill="url(#paint21_linear_1597_10)"/><path fill-rule="evenodd" clip-rule="evenodd" d="M333.285 182.251c-1.405 0-2.884-2.958-3.348-6.748-.477-3.898.303-7.2 1.743-7.375a.95.95 0 01.119-.007c1.405 0 2.886 2.958 3.348 6.748.477 3.898-.303 7.2-1.742 7.375a.977.977 0 01-.12.007z" fill="#74BEC1"/><path fill-rule="evenodd" clip-rule="evenodd" d="M360.3 223.331h-21.764a9.905 9.905 0 01-9.645-7.636c23.922-1.505 39.834-16.641 47.954-30.07l-6.89 30.027a9.898 9.898 0 01-9.655 7.679z" fill="url(#paint22_linear_1597_10)"/><path fill-rule="evenodd" clip-rule="evenodd" d="M342.735 247.811l-.028-.001h.089l-.061.001zm13.359 0l-.052-.001h.093l-.041.001z" fill="#D4C2BE"/><path fill-rule="evenodd" clip-rule="evenodd" d="M346.574 247.889c-1.274 0-2.55-.015-3.84-.078l.061-.001h13.246l.052.001c-1.12.029-2.222.027-3.324.033l-3.343.032c-.95.005-1.9.013-2.852.013z" fill="#D1983B"/><path fill-rule="evenodd" clip-rule="evenodd" d="M356.135 247.81h-13.428c1.1-.275 2.217-.439 3.339-.557a37.235 37.235 0 013.374-.191h.12c2.211 0 4.446.157 6.595.748z" fill="url(#paint23_linear_1597_10)"/><path fill-rule="evenodd" clip-rule="evenodd" d="M338.67 257.352l-.08-.004h.298c-.074 0-.146.002-.218.004z" fill="#D4C2BE"/><path fill-rule="evenodd" clip-rule="evenodd" d="M344.662 257.461c-1.993 0-3.991-.026-5.99-.109.072-.002.144-.004.218-.004h16.192c-.083.002-.165.002-.248.002l-5.409.08c-1.585.013-3.173.031-4.763.031z" fill="#D1983B"/><path fill-rule="evenodd" clip-rule="evenodd" d="M360.245 257.348a60.96 60.96 0 00-2.004-.031c-1.054 0-2.106.02-3.16.031H338.59c3.594-.485 7.207-.674 10.825-.733.386-.004.774-.007 1.161-.007 1.423 0 2.845.029 4.267.107 1.808.089 3.625.256 5.402.633z" fill="url(#paint24_linear_1597_10)"/><path fill-rule="evenodd" clip-rule="evenodd" d="M339.686 115.444l2.241 16.104c.131.934-1.124 1.363-1.597.547l-8.144-14.081a1.581 1.581 0 01.863-2.289l4.548-1.558a1.587 1.587 0 012.089 1.277z" fill="#FF5800"/><path fill-rule="evenodd" clip-rule="evenodd" d="M362.207 105.802l-8.817 27.647c-.51 1.601-2.86 1.33-2.991-.346l-2.246-28.927c-.139-1.774 1.381-3.226 3.152-3.021l8.523.986c1.773.205 2.919 1.965 2.379 3.661z" fill="#F9B384"/><path fill-rule="evenodd" clip-rule="evenodd" d="M372.499 122.738l-10.519 10.011c-.607.581-1.572-.102-1.228-.868l5.975-13.225a1.417 1.417 0 012.11-.569l3.501 2.475a1.41 1.41 0 01.161 2.176z" fill="#FF5800"/><path fill-rule="evenodd" clip-rule="evenodd" d="M158.918 202.508c4.72 2.934 9.73-.86 10.279-4.086.817-4.801-3.562-10.326-10.279-6.227 0 0-5.821-6.794-11.475-.068 0 0-9.648 4.846-4.293 13.27 5.338 8.398 12.073-3.042 12.073-3.042l3.695.153z" fill="#00152D"/><path fill-rule="evenodd" clip-rule="evenodd" d="M162.348 204.613c2.586 3.464 3.723 4.829 3.359 5.913-.364 1.084-2.951 1.172-2.951 1.172l-.408-7.085zm-4.018 10.704l-7.21 17.995-9.241-10.919 8.724-12.875 5.205 3.908 2.522 1.891z" fill="#F9B384"/><path fill-rule="evenodd" clip-rule="evenodd" d="M158.33 215.317l-1.481 3.695c-2.02-1.994-3.986-4.597-4.787-5.749l3.747.163 2.521 1.891z" fill="#102048"/><path fill-rule="evenodd" clip-rule="evenodd" d="M163.693 213.464c-.081 1.946-.468 3.462-1.421 4.136-2.739 1.935-12.797-6.316-12.797-6.316l-.686-11.614 14.142 1.006c.027 1.864.228 3.962.419 6.032.218 2.419.43 4.805.343 6.756z" fill="#F9B384"/><path fill-rule="evenodd" clip-rule="evenodd" d="M150.101 205.374c3.46.646 4.35-3.17 4.35-3.17 3.705-2.264 6.768 2.966 10.1 1.018l.514-6.679-14.659-.748-5.285 3.397 1.498 4.076 3.482 2.106z" fill="#00152D"/><path fill-rule="evenodd" clip-rule="evenodd" d="M152.269 205.448c-1.862-2.112-4.871-1.207-5.158 1.058-.287 2.265 1.588 6.084 4.632 3.869l.526-4.927z" fill="#F9B384"/><path fill-rule="evenodd" clip-rule="evenodd" d="M151.001 206.952c-.109-.249-.303-.452-.518-.619-.219-.16-.458-.302-.714-.364-.25-.073-.508-.078-.73.022-.228.091-.41.297-.575.534l-.148-.06c.076-.302.252-.609.56-.791.308-.178.687-.184 1.003-.094.317.102.605.266.832.495.225.226.419.512.446.847l-.156.03z" fill="#102048"/><path fill-rule="evenodd" clip-rule="evenodd" d="M164.555 242.011c3.055-3.544 3.358-8.605 4.516-9.644 2.155-1.934 1.171 3.976 1.171 3.976s1.402-3.98 4.772-4.881c2.206-.59 2.6 1.458 2.409 3.172-.318 2.846-1.255 6.102-3.56 7.993-.981.805-2.235 1.419-2.942 2.505-.402.618-.75 1.316-.944 2.03l-5.422-5.151z" fill="#F9B384"/><path fill-rule="evenodd" clip-rule="evenodd" d="M164.066 242.127l1.421-1.909 5.775 5.124-1.614 2.328-5.582-5.543z" fill="#708CD5"/><path fill-rule="evenodd" clip-rule="evenodd" d="M145.809 260.923l18.375-20.443 6.822 6.682c-4.878 11.072-11.341 18.177-21.703 23.611l-3.494-9.85z" fill="url(#paint25_linear_1597_10)"/><path fill-rule="evenodd" clip-rule="evenodd" d="M171.957 236.179c.363-.073.715.011 1.039.112.327.102.629.256.921.421.291.168.565.36.82.581.251.234.5.431.66.821l-.199.076c-.182-.17-.496-.346-.747-.515-.268-.168-.537-.337-.809-.497a19.68 19.68 0 00-.821-.462c-.278-.137-.559-.266-.852-.325l-.012-.212zm-1.757 1.239c.371.144.744.357 1.005.715.266.354.364.828.311 1.256a2.517 2.517 0 01-.467 1.162c-.244.33-.535.639-.977.767l-.068-.202c.263-.192.47-.517.641-.82.167-.311.291-.642.333-.971a1.587 1.587 0 00-.16-.944c-.158-.295-.431-.531-.717-.775l.099-.188z" fill="#E28B6D"/><path fill-rule="evenodd" clip-rule="evenodd" d="M106.527 260.923l-19.57-5.324a2.723 2.723 0 013.343-1.906l14.316 3.896a2.714 2.714 0 011.911 3.334z" fill="#708CD5"/><path fill-rule="evenodd" clip-rule="evenodd" d="M98.973 367.669s4.001 8.498 15.512 5.765l-5.551-7.35-9.961 1.585z" fill="#1F3C88"/><path fill-rule="evenodd" clip-rule="evenodd" d="M102.879 366.624l-4.098 9.2 4.473 7.036 5.532-4.491 2.446-10.124-8.353-1.621z" fill="#F9B384"/><path fill-rule="evenodd" clip-rule="evenodd" d="M98.78 375.823l10.004 2.546 5.675 14.015c.532 1.313-.835 2.589-2.111 1.972l-17.75-8.565a2.62 2.62 0 01-1.248-3.446l.157-.343a14.762 14.762 0 015.272-6.179z" fill="#1F3C88"/><path fill-rule="evenodd" clip-rule="evenodd" d="M98.78 375.823l10.004 2.546 5.675 14.015c.532 1.313-.835 2.589-2.111 1.972l-17.75-8.565a2.62 2.62 0 01-1.248-3.446l.157-.343a14.762 14.762 0 015.272-6.179z" fill="url(#paint26_linear_1597_10)"/><path fill-rule="evenodd" clip-rule="evenodd" d="M108.387 384.799l-.266-.474 2.479-1.387.266.474-2.479 1.387zm1.239 3.102l-.267-.474 2.479-1.386.266.473-2.478 1.387z" fill="#ACBFEE"/><path fill-rule="evenodd" clip-rule="evenodd" d="M112.295 272.823c-1.936 4.548-4.562 11.537-.16 19.935 1.792 3.417 2.394 7.33 1.529 11.089l-14.691 63.822 15.512 5.765 31.744-92.419-33.934-8.192z" fill="#00152D"/><path fill-rule="evenodd" clip-rule="evenodd" d="M153.799 226.864c3.134 8.982 3.222 24.316-2.734 40.496l-9.186 2.618 3.692-29.969 8.228-13.145z" fill="#ACBFEE"/><path fill-rule="evenodd" clip-rule="evenodd" d="M143.711 219.152l2.517-5.558s7.129 4.96 10.873 10.87l-4.367 8.202-9.023-13.514z" fill="#ACBFEE"/><path fill-rule="evenodd" clip-rule="evenodd" d="M145.566 266.175c-24.407-.782-37.182 12.87-37.089 12.337 3.926-13.293 7.624-23.232 10.934-30.652 6.001-13.462 10.717-18.657 13.167-20.614 1.198-.962 1.857-1.146 1.857-1.146l11.114-9.288c.964.494 1.879 1.201 2.707 1.978 3.131 2.935 4.922 6.989 5.347 11.25 1.666 16.679-8.037 36.135-8.037 36.135z" fill="url(#paint27_linear_1597_10)"/><path fill-rule="evenodd" clip-rule="evenodd" d="M138.522 227.77c-3.561 1.886-9.749 11.743-19.108 20.091 6.001-13.462 10.717-18.658 13.167-20.614l5.941.523z" fill="url(#paint28_linear_1597_10)"/><path fill-rule="evenodd" clip-rule="evenodd" d="M98.391 248.459l-3.928 5.569s-.486 2.276-1.537 3.18c0 0 .47 2.333 2.308 3.152 2.098.933 4.686.883 6.365-1.506 1.678-2.391 1.896-9.481 1.896-9.481l-5.104-.914z" fill="#F9B384"/><path fill-rule="evenodd" clip-rule="evenodd" d="M95.683 249.6c0 .362-.726 2.354-.726 2.354l8.539 1.178v-3.758l-7.813.226z" fill="#708CD5"/><path fill-rule="evenodd" clip-rule="evenodd" d="M145.552 216.81s-16.258-2.433-29.465 4.397a21.557 21.557 0 00-5.069 3.671c-6.376 6.166-12.072 12.238-16.381 25.13l10.153 1.657 10.234-15.097a6.202 6.202 0 013.747-2.552c5.42-1.234 16.187-3.831 18.225-5.017l1.5-1 7.056-11.189z" fill="url(#paint29_linear_1597_10)"/><path fill-rule="evenodd" clip-rule="evenodd" d="M159.801 313.858s6.114 8.131 16.241 4.046l-6.755-7.163-9.486 3.117z" fill="#1F3C88"/><path fill-rule="evenodd" clip-rule="evenodd" d="M163.544 311.723l-4.099 9.198 4.474 7.039 5.531-4.491 2.446-10.124-8.352-1.622z" fill="#F9B384"/><path fill-rule="evenodd" clip-rule="evenodd" d="M159.443 320.921l10.005 2.548 5.675 14.015c.532 1.311-.835 2.587-2.111 1.972l-17.75-8.565a2.62 2.62 0 01-1.248-3.448l.157-.343a14.788 14.788 0 015.272-6.179z" fill="url(#paint30_linear_1597_10)"/><path fill-rule="evenodd" clip-rule="evenodd" d="M169.012 329.65l-.266-.474 2.478-1.389.267.474-2.479 1.389zm1.239 3.102l-.267-.474 2.479-1.389.266.474-2.478 1.389z" fill="#ACBFEE"/><path fill-rule="evenodd" clip-rule="evenodd" d="M112.293 272.824c3.335-2.303 24.608-7.87 38.113-7.464 15.009.453 27.055 2.155 31.952 13.124 4.896 10.97-6.319 39.42-6.319 39.42l-16.241-4.046 3.915-26.376s-20.566 2.589-30.368 2.698l-21.052-17.356z" fill="#00152D"/><path fill-rule="evenodd" clip-rule="evenodd" d="M115.214 273.704l-5.157 18.884-.605 2.202a4.384 4.384 0 01-5.38 3.066l-33.778-9.192a4.37 4.37 0 01-3.076-5.369l5.761-21.081a4.38 4.38 0 015.375-3.071l33.783 9.191a4.376 4.376 0 013.077 5.37z" fill="#ACBFEE"/><path fill-rule="evenodd" clip-rule="evenodd" d="M83.953 266.614l2.997-10.971a2.726 2.726 0 013.343-1.909L86.58 267.33l-2.627-.716zm17.129 3.922l3.537-12.95a2.718 2.718 0 011.911 3.337l-2.821 10.329-2.627-.716z" fill="#708CD5"/><path fill-rule="evenodd" clip-rule="evenodd" d="M87.416 267.68a2.342 2.342 0 01-2.345 2.339 2.342 2.342 0 01-2.344-2.339 2.343 2.343 0 012.344-2.342 2.343 2.343 0 012.345 2.342zm17.168 3.796a2.343 2.343 0 01-2.345 2.339 2.342 2.342 0 01-2.345-2.339 2.343 2.343 0 012.345-2.342 2.343 2.343 0 012.345 2.342z" fill="#102048"/><path fill-rule="evenodd" clip-rule="evenodd" d="M67.219 283.295l4.51-16.5-4.51 16.5z" fill="#DBDEE4"/><path fill-rule="evenodd" clip-rule="evenodd" d="M105.229 298.01c-.382 0-.77-.05-1.156-.154l-33.778-9.192a4.376 4.376 0 01-3.233-4.21c0-.383.05-.772.156-1.159l4.51-16.5c-1.14 15.606 23.229 25.739 38.329 25.793l-.605 2.203a4.38 4.38 0 01-4.223 3.219z" fill="#95A7D5"/><path d="M123.332 105h5.333v5.333h-5.333V105zm5.336 5.333h5.333v5.334h-5.333v-5.334zm-10.668 0h5.333v5.334H118v-5.334zm5.332 5.334h5.333V121h-5.333v-5.333z" fill="#14353F"/><path d="M219.332 142h5.333v5.333h-5.333V142zm5.336 5.333h5.333v5.334h-5.333v-5.334zm-10.668 0h5.333v5.334H214v-5.334zm5.332 5.334h5.333V158h-5.333v-5.333z" fill="#307D93"/><path d="M388.332 223h5.333v5.333h-5.333V223zm5.336 5.333h5.333v5.334h-5.333v-5.334zm-10.668 0h5.333v5.334H383v-5.334zm5.332 5.334h5.333V239h-5.333v-5.333z" fill="#429BB4"/><path d="M145.996 86h4v4h-4v-4zm4.008 4h4v4h-4v-4zM142 90h4v4h-4v-4zm3.996 4h4v4h-4v-4z" fill="#0E2C34"/><path d="M273.996 96h4v4h-4v-4zm4.008 4h4v3.999h-4v-4z" fill="#1F3940"/><path d="M270 100h4v3.999h-4v-4zm3.996 4h4v4h-4v-4z" fill="#1F3940"/><path d="M127.652 68h2.667v2.667h-2.667V68zm2.688 2.666h2.667v2.667h-2.667v-2.666z" fill="#14353F"/><path d="M125 70.666h2.667v2.667H125v-2.666zm2.652 2.668h2.667V76h-2.667v-2.666z" fill="#14353F"/><path d="M219.652 52h2.667v2.667h-2.667V52zm2.688 2.666h2.667v2.667h-2.667v-2.666z" fill="#429BB4"/><path d="M217 54.666h2.667v2.667H217v-2.666zm2.652 2.668h2.667V60h-2.667v-2.666z" fill="#429BB4"/><defs><linearGradient id="paint0_linear_1597_10" x1="165.5" y1="30.5" x2="253.767" y2="187.875" gradientUnits="userSpaceOnUse"><stop stop-color="#88DEB1"/><stop offset=".157" stop-color="#239659"/><stop offset=".462" stop-color="#2374D4" stop-opacity=".62"/><stop offset="1" stop-color="#0657B5" stop-opacity="0"/></linearGradient><linearGradient id="paint1_linear_1597_10" x1="154" y1="77" x2="245.515" y2="261.664" gradientUnits="userSpaceOnUse"><stop stop-color="#88DEB1"/><stop offset=".265" stop-color="#239659"/><stop offset=".616" stop-color="#2374D4" stop-opacity=".62"/><stop offset="1" stop-color="#0657B5" stop-opacity="0"/></linearGradient><linearGradient id="paint7_linear_1597_10" x1="292" y1="224" x2="67" y2="371" gradientUnits="userSpaceOnUse"><stop stop-color="#6BC096"/><stop offset="1" stop-color="#2979D5"/></linearGradient><linearGradient id="paint8_linear_1597_10" x1="97.5" y1="395" x2="97.5" y2="415" gradientUnits="userSpaceOnUse"><stop stop-color="#00162F"/><stop offset="1" stop-color="#001936" stop-opacity="0"/></linearGradient><linearGradient id="paint9_linear_1597_10" x1="215.5" y1="346" x2="215.5" y2="366" gradientUnits="userSpaceOnUse"><stop stop-color="#00162F"/><stop offset="1" stop-color="#001936" stop-opacity="0"/></linearGradient><linearGradient id="paint10_linear_1597_10" x1="275.5" y1="322" x2="275.5" y2="342" gradientUnits="userSpaceOnUse"><stop stop-color="#00162F"/><stop offset="1" stop-color="#001936" stop-opacity="0"/></linearGradient><linearGradient id="paint11_linear_1597_10" x1="343" y1="298" x2="343" y2="318" gradientUnits="userSpaceOnUse"><stop stop-color="#00162F"/><stop offset="1" stop-color="#001936" stop-opacity="0"/></linearGradient><linearGradient id="paint12_linear_1597_10" x1="156.5" y1="370" x2="156.5" y2="390" gradientUnits="userSpaceOnUse"><stop stop-color="#00162F"/><stop offset="1" stop-color="#001936" stop-opacity="0"/></linearGradient><linearGradient id="paint13_linear_1597_10" x1="384.874" y1="151.624" x2="384.874" y2="211.116" gradientUnits="userSpaceOnUse"><stop stop-color="#89DFB2"/><stop offset=".772" stop-color="#1A488A"/><stop offset="1" stop-color="#0F5982"/></linearGradient><linearGradient id="paint14_linear_1597_10" x1="313.96" y1="151.624" x2="313.96" y2="211.116" gradientUnits="userSpaceOnUse"><stop stop-color="#89DFB2"/><stop offset=".772" stop-color="#1A488A"/><stop offset="1" stop-color="#0F5982"/></linearGradient><linearGradient id="paint15_linear_1597_10" x1="349.417" y1="257.348" x2="349.417" y2="272.672" gradientUnits="userSpaceOnUse"><stop stop-color="#89DFB2"/><stop offset=".772" stop-color="#1A488A"/><stop offset="1" stop-color="#0F5982"/></linearGradient><linearGradient id="paint16_linear_1597_10" x1="349.417" y1="247.809" x2="349.417" y2="257.348" gradientUnits="userSpaceOnUse"><stop stop-color="#89DFB2"/><stop offset=".772" stop-color="#1A488A"/><stop offset="1" stop-color="#0F5982"/></linearGradient><linearGradient id="paint17_linear_1597_10" x1="349.421" y1="231.815" x2="349.421" y2="247.81" gradientUnits="userSpaceOnUse"><stop stop-color="#89DFB2"/><stop offset=".772" stop-color="#1A488A"/><stop offset="1" stop-color="#0F5982"/></linearGradient><linearGradient id="paint18_linear_1597_10" x1="349.421" y1="231.815" x2="349.421" y2="237.994" gradientUnits="userSpaceOnUse"><stop stop-color="#89DFB2"/><stop offset=".772" stop-color="#1A488A"/><stop offset="1" stop-color="#0F5982"/></linearGradient><linearGradient id="paint19_linear_1597_10" x1="349.417" y1="222.277" x2="349.417" y2="231.815" gradientUnits="userSpaceOnUse"><stop stop-color="#89DFB2"/><stop offset=".772" stop-color="#1A488A"/><stop offset="1" stop-color="#0F5982"/></linearGradient><linearGradient id="paint20_linear_1597_10" x1="349.417" y1="223.331" x2="349.417" y2="228.798" gradientUnits="userSpaceOnUse"><stop stop-color="#89DFB2"/><stop offset=".772" stop-color="#1A488A"/><stop offset="1" stop-color="#0F5982"/></linearGradient><linearGradient id="paint21_linear_1597_10" x1="349.418" y1="152.861" x2="349.418" y2="223.331" gradientUnits="userSpaceOnUse"><stop stop-color="#89DFB2"/><stop offset=".772" stop-color="#1A488A"/><stop offset="1" stop-color="#0F5982"/></linearGradient><linearGradient id="paint22_linear_1597_10" x1="352.868" y1="185.625" x2="352.868" y2="223.331" gradientUnits="userSpaceOnUse"><stop stop-color="#89DFB2"/><stop offset=".772" stop-color="#1A488A"/><stop offset="1" stop-color="#0F5982"/></linearGradient><linearGradient id="paint23_linear_1597_10" x1="349.421" y1="247.062" x2="349.421" y2="247.81" gradientUnits="userSpaceOnUse"><stop stop-color="#89DFB2"/><stop offset=".772" stop-color="#1A488A"/><stop offset="1" stop-color="#0F5982"/></linearGradient><linearGradient id="paint24_linear_1597_10" x1="349.417" y1="256.608" x2="349.417" y2="257.348" gradientUnits="userSpaceOnUse"><stop stop-color="#89DFB2"/><stop offset=".772" stop-color="#1A488A"/><stop offset="1" stop-color="#0F5982"/></linearGradient><linearGradient id="paint25_linear_1597_10" x1="158.407" y1="240.48" x2="158.407" y2="270.773" gradientUnits="userSpaceOnUse"><stop stop-color="#89DFB2"/><stop offset=".772" stop-color="#1A488A"/><stop offset="1" stop-color="#0F5982"/></linearGradient><linearGradient id="paint26_linear_1597_10" x1="95.496" y1="378.5" x2="113.496" y2="394" gradientUnits="userSpaceOnUse"><stop stop-color="#89DFB2"/><stop offset="1" stop-color="#3490C2"/></linearGradient><linearGradient id="paint27_linear_1597_10" x1="131.136" y1="216.812" x2="131.136" y2="278.528" gradientUnits="userSpaceOnUse"><stop stop-color="#89DFB2"/><stop offset=".772" stop-color="#1A488A"/><stop offset="1" stop-color="#0F5982"/></linearGradient><linearGradient id="paint28_linear_1597_10" x1="120.5" y1="246.5" x2="135" y2="230" gradientUnits="userSpaceOnUse"><stop stop-color="#2C637B"/><stop offset="1" stop-color="#478793"/></linearGradient><linearGradient id="paint29_linear_1597_10" x1="120.094" y1="216.389" x2="120.094" y2="251.665" gradientUnits="userSpaceOnUse"><stop stop-color="#89DFB2"/><stop offset=".772" stop-color="#1A488A"/><stop offset="1" stop-color="#0F5982"/></linearGradient><linearGradient id="paint30_linear_1597_10" x1="156.16" y1="323.598" x2="174.161" y2="339.098" gradientUnits="userSpaceOnUse"><stop stop-color="#89DFB2"/><stop offset="1" stop-color="#3490C2"/></linearGradient><radialGradient id="paint2_radial_1597_10" cx="0" cy="0" r="1" gradientUnits="userSpaceOnUse" gradientTransform="matrix(0 52 -52 0 406 143)"><stop stop-color="#355BBF"/><stop offset="1" stop-color="#0A233F" stop-opacity="0"/></radialGradient><radialGradient id="paint3_radial_1597_10" cx="0" cy="0" r="1" gradientUnits="userSpaceOnUse" gradientTransform="matrix(0 201.952 -203.771 0 150.565 277.427)"><stop stop-color="#3CC065"/><stop offset="1" stop-color="#0A233F" stop-opacity="0"/></radialGradient><radialGradient id="paint4_radial_1597_10" cx="0" cy="0" r="1" gradientUnits="userSpaceOnUse" gradientTransform="scale(246.794 244.592) rotate(90 .176 .823)"><stop stop-color="#3CC065"/><stop offset="1" stop-color="#0A233F" stop-opacity="0"/></radialGradient><radialGradient id="paint5_radial_1597_10" cx="0" cy="0" r="1" gradientUnits="userSpaceOnUse" gradientTransform="matrix(2.43353 156.00302 -157.40785 2.45545 268.565 180.427)"><stop stop-color="#078DFF"/><stop offset="1" stop-color="#0A233F" stop-opacity="0"/></radialGradient><radialGradient id="paint6_radial_1597_10" cx="0" cy="0" r="1" gradientUnits="userSpaceOnUse" gradientTransform="rotate(85.397 -45.621 202.177) scale(154.904 156.298)"><stop stop-color="#35EFE4" stop-opacity=".5"/><stop offset="1" stop-color="#0A233F" stop-opacity="0"/></radialGradient></defs></svg>